M48
; DRILL file {KiCad 7.0.10} date sob, 11 maj 2024, 12:56:41
; FORMAT={-:-/ absolute / inch / decimal}
; #@! TF.CreationDate,2024-05-11T12:56:41+02:00
; #@! TF.GenerationSoftware,Kicad,Pcbnew,7.0.10
; #@! TF.FileFunction,Plated,1,2,PTH
FMAT,2
INCH
; #@! TA.AperFunction,Plated,PTH,ViaDrill
T1C0.0157
; #@! TA.AperFunction,Plated,PTH,ViaDrill
T2C0.0295
; #@! TA.AperFunction,Plated,PTH,ComponentDrill
T3C0.0315
; #@! TA.AperFunction,Plated,PTH,ComponentDrill
T4C0.0374
; #@! TA.AperFunction,Plated,PTH,ComponentDrill
T5C0.0472
; #@! TA.AperFunction,Plated,PTH,ComponentDrill
T6C0.0551
; #@! TA.AperFunction,Plated,PTH,ComponentDrill
T7C0.0598
; #@! TA.AperFunction,Plated,PTH,ViaDrill
T8C0.0787
; #@! TA.AperFunction,Plated,PTH,ComponentDrill
T9C0.0984
; #@! TA.AperFunction,Plated,PTH,ViaDrill
T10C0.1181
; #@! TA.AperFunction,Plated,PTH,ViaDrill
T11C0.1693
%
G90
G05
T1
X5.6203Y-8.0834
X5.8684Y-8.0794
X6.1125Y-8.0853
X6.2148Y-8.0853
X6.8526Y-8.0381
X6.8782Y-8.0834
X6.9943Y-8.0735
X7.138Y-8.0479
X7.1794Y-8.0991
X8.0554Y-8.0263
X8.1479Y-8.0971
X8.5613Y-8.0184
X8.6282Y-8.0873
X9.3211Y-7.9967
X9.3664Y-8.0814
X9.6262Y-7.9849
X9.6695Y-8.0735
X9.827Y-7.9908
X9.8644Y-8.0794
X10.5225Y-7.9922
X10.6262Y-8.0794
X10.9884Y-7.9652
X11.0534Y-8.0676
X13.018Y-3.129
X13.059Y-2.965
X13.076Y-3.883
X13.163Y-3.798
X13.236Y-3.883
X13.261Y-3.8429
X13.295Y-2.963
X13.311Y-3.719
T2
X3.916Y-2.6552
X3.916Y-2.8043
X3.916Y-2.9534
X3.916Y-3.1025
X3.916Y-3.2516
X3.916Y-3.4007
X3.916Y-3.5497
X3.916Y-3.6988
X3.916Y-3.8479
X3.916Y-3.997
X3.916Y-4.1461
X3.916Y-4.2952
X3.916Y-4.4443
X3.916Y-4.5933
X3.916Y-4.7424
X3.916Y-4.8915
X3.916Y-5.0406
X3.916Y-5.1897
X3.916Y-5.3388
X3.916Y-5.4879
X3.916Y-5.637
X3.916Y-5.786
X3.916Y-5.9351
X3.916Y-6.0842
X3.916Y-6.2333
X3.916Y-6.3824
X3.916Y-6.5315
X3.916Y-6.6806
X3.916Y-6.8297
X3.916Y-6.9787
X3.916Y-7.1278
X3.916Y-7.2769
X3.916Y-7.426
X3.916Y-7.5751
X3.916Y-7.7242
X3.916Y-7.8733
X3.916Y-8.0224
X4.258Y-5.8635
X4.258Y-5.9753
X4.258Y-6.0871
X4.258Y-6.199
X4.258Y-6.3108
X4.258Y-6.4226
X4.258Y-6.5344
X4.258Y-6.6462
X4.258Y-6.758
X4.264Y-3.3524
X4.264Y-3.4643
X4.264Y-3.5761
X4.264Y-3.6879
X4.264Y-3.7997
X4.264Y-3.9115
X4.264Y-4.0233
X4.264Y-4.1351
X4.264Y-4.247
X4.338Y-6.0395
X4.338Y-6.1513
X4.338Y-6.2631
X4.338Y-6.375
X4.338Y-6.4868
X4.338Y-6.5986
X4.338Y-6.7104
X4.338Y-6.8222
X4.338Y-6.934
X4.35Y-4.799
X4.35Y-4.967
X4.352Y-5.173
X4.354Y-5.363
X4.354Y-5.573
X4.36Y-3.4084
X4.36Y-3.5203
X4.36Y-3.6321
X4.36Y-3.7439
X4.36Y-3.8557
X4.36Y-3.9675
X4.36Y-4.0793
X4.36Y-4.1911
X4.36Y-4.303
X4.386Y-7.229
X4.42Y-3.191
X4.4373Y-8.323
X4.4533Y-2.165
X4.53Y-7.441
X4.5864Y-8.323
X4.602Y-3.023
X4.6024Y-2.165
X4.678Y-7.589
X4.7355Y-8.323
X4.7515Y-2.165
X4.8047Y-2.875
X4.822Y-6.711
X4.828Y-5.499
X4.832Y-4.773
X4.832Y-6.247
X4.8727Y-7.675
X4.8846Y-8.323
X4.9006Y-2.165
X4.9538Y-2.875
X5.0218Y-7.675
X5.0337Y-8.323
X5.046Y-3.8563
X5.046Y-4.0054
X5.046Y-4.1545
X5.046Y-4.3036
X5.046Y-4.4527
X5.046Y-4.6017
X5.046Y-4.7508
X5.046Y-4.8999
X5.046Y-5.049
X5.046Y-5.1981
X5.046Y-5.3472
X5.046Y-5.4963
X5.046Y-5.6453
X5.046Y-5.7944
X5.046Y-5.9435
X5.046Y-6.0926
X5.046Y-6.2417
X5.046Y-6.3908
X5.046Y-6.5399
X5.046Y-6.689
X5.0497Y-2.165
X5.1029Y-2.875
X5.1709Y-7.675
X5.1828Y-8.323
X5.1988Y-2.165
X5.244Y-3.7792
X5.244Y-3.9283
X5.244Y-4.0774
X5.244Y-4.2265
X5.244Y-4.3756
X5.244Y-4.5247
X5.244Y-4.6737
X5.244Y-4.8228
X5.244Y-4.9719
X5.244Y-5.121
X5.244Y-5.2701
X5.244Y-5.4192
X5.244Y-5.5683
X5.244Y-5.7173
X5.244Y-5.8664
X5.244Y-6.0155
X5.244Y-6.1646
X5.244Y-6.3137
X5.244Y-6.4628
X5.244Y-6.6119
X5.244Y-6.761
X5.252Y-2.875
X5.32Y-7.675
X5.3319Y-8.323
X5.3479Y-2.165
X5.4011Y-2.875
X5.454Y-3.8523
X5.454Y-4.0014
X5.454Y-4.1505
X5.454Y-4.2996
X5.454Y-4.4487
X5.454Y-4.5977
X5.454Y-4.7468
X5.454Y-4.8959
X5.454Y-5.045
X5.454Y-5.1941
X5.454Y-5.3432
X5.454Y-5.4923
X5.454Y-5.6413
X5.454Y-5.7904
X5.454Y-5.9395
X5.454Y-6.0886
X5.454Y-6.2377
X5.454Y-6.3868
X5.454Y-6.5359
X5.454Y-6.685
X5.4691Y-7.675
X5.481Y-8.323
X5.497Y-2.165
X5.5502Y-2.875
X5.576Y-3.245
X5.594Y-7.241
X5.614Y-2.395
X5.6182Y-7.675
X5.63Y-8.323
X5.646Y-3.7772
X5.646Y-3.9263
X5.646Y-4.0754
X5.646Y-4.2245
X5.646Y-4.3736
X5.646Y-4.5227
X5.646Y-4.6717
X5.646Y-4.8208
X5.646Y-4.9699
X5.646Y-5.119
X5.646Y-5.2681
X5.646Y-5.4172
X5.646Y-5.5663
X5.646Y-5.7153
X5.646Y-5.8644
X5.646Y-6.0135
X5.646Y-6.1626
X5.646Y-6.3117
X5.646Y-6.4608
X5.646Y-6.6099
X5.646Y-6.759
X5.646Y-2.165
X5.6993Y-2.875
X5.6995Y-7.5085
X5.7014Y-7.3334
X5.726Y-7.241
X5.746Y-3.245
X5.7673Y-7.675
X5.7791Y-8.323
X5.7951Y-2.165
X5.8113Y-7.5085
X5.8132Y-7.3334
X5.8483Y-2.875
X5.888Y-3.245
X5.892Y-7.241
X5.9163Y-7.675
X5.9282Y-8.323
X5.9442Y-2.165
X5.9974Y-2.875
X6.0654Y-7.675
X6.0773Y-8.323
X6.0933Y-2.165
X6.1465Y-2.875
X6.19Y-2.405
X6.2145Y-7.675
X6.2264Y-8.323
X6.2424Y-2.165
X6.2956Y-2.875
X6.348Y-3.8583
X6.348Y-4.0074
X6.348Y-4.1565
X6.348Y-4.3056
X6.348Y-4.4547
X6.348Y-4.6037
X6.348Y-4.7528
X6.348Y-4.9019
X6.348Y-5.051
X6.348Y-5.2001
X6.348Y-5.3492
X6.348Y-5.4983
X6.348Y-5.6473
X6.348Y-5.7964
X6.348Y-5.9455
X6.348Y-6.0946
X6.348Y-6.2437
X6.348Y-6.3928
X6.348Y-6.5419
X6.348Y-6.691
X6.3636Y-7.675
X6.3755Y-8.323
X6.3915Y-2.165
X6.4447Y-2.875
X6.5127Y-7.675
X6.5246Y-8.323
X6.5406Y-2.165
X6.546Y-3.7812
X6.546Y-3.9303
X6.546Y-4.0794
X6.546Y-4.2285
X6.546Y-4.3776
X6.546Y-4.5267
X6.546Y-4.6757
X6.546Y-4.8248
X6.546Y-4.9739
X6.546Y-5.123
X6.546Y-5.2721
X6.546Y-5.4212
X6.546Y-5.5703
X6.546Y-5.7193
X6.546Y-5.8684
X6.546Y-6.0175
X6.546Y-6.1666
X6.546Y-6.3157
X6.546Y-6.4648
X6.546Y-6.6139
X6.5938Y-2.875
X6.6618Y-7.675
X6.6737Y-8.323
X6.6897Y-2.165
X6.7429Y-2.875
X6.756Y-3.8543
X6.756Y-4.0034
X6.756Y-4.1525
X6.756Y-4.3016
X6.756Y-4.4507
X6.756Y-4.5997
X6.756Y-4.7488
X6.756Y-4.8979
X6.756Y-5.047
X6.756Y-5.1961
X6.756Y-5.3452
X6.756Y-5.4943
X6.756Y-5.6433
X6.756Y-5.7924
X6.756Y-5.9415
X6.756Y-6.0906
X6.756Y-6.2397
X6.756Y-6.3888
X6.756Y-6.5379
X6.756Y-6.687
X6.8109Y-7.675
X6.8227Y-8.323
X6.8387Y-2.165
X6.858Y-3.245
X6.874Y-7.241
X6.876Y-2.411
X6.8919Y-2.875
X6.948Y-3.7792
X6.948Y-3.9283
X6.948Y-4.0774
X6.948Y-4.2265
X6.948Y-4.3756
X6.948Y-4.5247
X6.948Y-4.6737
X6.948Y-4.8228
X6.948Y-4.9719
X6.948Y-5.121
X6.948Y-5.2701
X6.948Y-5.4192
X6.948Y-5.5683
X6.948Y-5.7173
X6.948Y-5.8664
X6.948Y-6.0155
X6.948Y-6.1646
X6.948Y-6.3137
X6.948Y-6.4628
X6.948Y-6.6119
X6.9593Y-7.5085
X6.9599Y-7.675
X6.9613Y-7.3334
X6.9718Y-8.323
X6.9878Y-2.165
X7.018Y-3.245
X7.041Y-2.875
X7.0711Y-7.5085
X7.0731Y-7.3334
X7.109Y-7.675
X7.12Y-7.241
X7.1209Y-8.323
X7.1369Y-2.165
X7.172Y-3.245
X7.1901Y-2.875
X7.2581Y-7.675
X7.27Y-8.323
X7.286Y-2.165
X7.3392Y-2.875
X7.374Y-2.411
X7.4072Y-7.675
X7.4191Y-8.323
X7.4351Y-2.165
X7.4883Y-2.875
X7.5563Y-7.675
X7.5682Y-8.323
X7.5842Y-2.165
X7.614Y-3.8583
X7.614Y-4.0074
X7.614Y-4.1565
X7.614Y-4.3056
X7.614Y-4.4547
X7.614Y-4.6037
X7.614Y-4.7528
X7.614Y-4.9019
X7.614Y-5.051
X7.614Y-5.2001
X7.614Y-5.3492
X7.614Y-5.4983
X7.614Y-5.6473
X7.614Y-5.7964
X7.614Y-5.9455
X7.614Y-6.0946
X7.614Y-6.2437
X7.614Y-6.3928
X7.614Y-6.5419
X7.614Y-6.691
X7.6374Y-2.875
X7.7054Y-7.675
X7.7173Y-8.323
X7.7333Y-2.165
X7.7865Y-2.875
X7.812Y-3.7812
X7.812Y-3.9303
X7.812Y-4.0794
X7.812Y-4.2285
X7.812Y-4.3776
X7.812Y-4.5267
X7.812Y-4.6757
X7.812Y-4.8248
X7.812Y-4.9739
X7.812Y-5.123
X7.812Y-5.2721
X7.812Y-5.4212
X7.812Y-5.5703
X7.812Y-5.7193
X7.812Y-5.8684
X7.812Y-6.0175
X7.812Y-6.1666
X7.812Y-6.3157
X7.812Y-6.4648
X7.812Y-6.6139
X7.8545Y-7.675
X7.8663Y-8.323
X7.8823Y-2.165
X7.9356Y-2.875
X8.0036Y-7.675
X8.0154Y-8.323
X8.022Y-3.8543
X8.022Y-4.0034
X8.022Y-4.1525
X8.022Y-4.3016
X8.022Y-4.4507
X8.022Y-4.5997
X8.022Y-4.7488
X8.022Y-4.8979
X8.022Y-5.047
X8.022Y-5.1961
X8.022Y-5.3452
X8.022Y-5.4943
X8.022Y-5.6433
X8.022Y-5.7924
X8.022Y-5.9415
X8.022Y-6.0906
X8.022Y-6.2397
X8.022Y-6.3888
X8.022Y-6.5379
X8.022Y-6.687
X8.0314Y-2.165
X8.0846Y-2.875
X8.098Y-7.241
X8.1Y-3.245
X8.144Y-2.423
X8.1526Y-7.675
X8.1645Y-8.323
X8.1798Y-7.5085
X8.1805Y-2.165
X8.1817Y-7.3334
X8.214Y-3.7792
X8.214Y-3.9283
X8.214Y-4.0774
X8.214Y-4.2265
X8.214Y-4.3756
X8.214Y-4.5247
X8.214Y-4.6737
X8.214Y-4.8228
X8.214Y-4.9719
X8.214Y-5.121
X8.214Y-5.2701
X8.214Y-5.4192
X8.214Y-5.5683
X8.214Y-5.7173
X8.214Y-5.8664
X8.214Y-6.0155
X8.214Y-6.1646
X8.214Y-6.3137
X8.214Y-6.4628
X8.214Y-6.6119
X8.2337Y-2.875
X8.246Y-3.245
X8.2916Y-7.5085
X8.2936Y-7.3334
X8.3017Y-7.675
X8.3136Y-8.323
X8.3296Y-2.165
X8.382Y-7.241
X8.3828Y-2.875
X8.416Y-3.245
X8.4508Y-7.675
X8.4627Y-8.323
X8.4787Y-2.165
X8.5319Y-2.875
X8.5999Y-7.675
X8.61Y-2.419
X8.6118Y-8.323
X8.6278Y-2.165
X8.681Y-2.875
X8.749Y-7.675
X8.7609Y-8.323
X8.7769Y-2.165
X8.8301Y-2.875
X8.876Y-3.8383
X8.876Y-3.9874
X8.876Y-4.1365
X8.876Y-4.2856
X8.876Y-4.4347
X8.876Y-4.5837
X8.876Y-4.7328
X8.876Y-4.8819
X8.876Y-5.031
X8.876Y-5.1801
X8.876Y-5.3292
X8.876Y-5.4783
X8.876Y-5.6273
X8.876Y-5.7764
X8.876Y-5.9255
X8.876Y-6.0746
X8.876Y-6.2237
X8.876Y-6.3728
X8.876Y-6.5219
X8.876Y-6.671
X8.8981Y-7.675
X8.91Y-8.323
X8.926Y-2.165
X8.9792Y-2.875
X9.0472Y-7.675
X9.059Y-8.323
X9.074Y-3.7612
X9.074Y-3.9103
X9.074Y-4.0594
X9.074Y-4.2085
X9.074Y-4.3576
X9.074Y-4.5067
X9.074Y-4.6557
X9.074Y-4.8048
X9.074Y-4.9539
X9.074Y-5.103
X9.074Y-5.2521
X9.074Y-5.4012
X9.074Y-5.5503
X9.074Y-5.6993
X9.074Y-5.8484
X9.074Y-5.9975
X9.074Y-6.1466
X9.074Y-6.2957
X9.074Y-6.4448
X9.074Y-6.5939
X9.075Y-2.165
X9.1283Y-2.875
X9.1963Y-7.675
X9.2081Y-8.323
X9.2241Y-2.165
X9.2773Y-2.875
X9.284Y-3.8343
X9.284Y-3.9834
X9.284Y-4.1325
X9.284Y-4.2816
X9.284Y-4.4307
X9.284Y-4.5797
X9.284Y-4.7288
X9.284Y-4.8779
X9.284Y-5.027
X9.284Y-5.1761
X9.284Y-5.3252
X9.284Y-5.4743
X9.284Y-5.6233
X9.284Y-5.7724
X9.284Y-5.9215
X9.284Y-6.0706
X9.284Y-6.2197
X9.284Y-6.3688
X9.284Y-6.5179
X9.284Y-6.667
X9.33Y-7.241
X9.332Y-3.245
X9.334Y-2.411
X9.3453Y-7.675
X9.3572Y-8.323
X9.3732Y-2.165
X9.4264Y-2.875
X9.4396Y-7.5085
X9.4416Y-7.3334
X9.476Y-3.7592
X9.476Y-3.9083
X9.476Y-4.0574
X9.476Y-4.2065
X9.476Y-4.3556
X9.476Y-4.5047
X9.476Y-4.6537
X9.476Y-4.8028
X9.476Y-4.9519
X9.476Y-5.101
X9.476Y-5.2501
X9.476Y-5.3992
X9.476Y-5.5483
X9.476Y-5.6973
X9.476Y-5.8464
X9.476Y-5.9955
X9.476Y-6.1446
X9.476Y-6.2937
X9.476Y-6.4428
X9.476Y-6.5919
X9.48Y-3.245
X9.4944Y-7.675
X9.5063Y-8.323
X9.5223Y-2.165
X9.5514Y-7.5085
X9.5534Y-7.3334
X9.5755Y-2.875
X9.618Y-3.245
X9.6435Y-7.675
X9.654Y-7.241
X9.6554Y-8.323
X9.6714Y-2.165
X9.7246Y-2.875
X9.7926Y-7.675
X9.8045Y-8.323
X9.816Y-2.401
X9.8205Y-2.165
X9.8737Y-2.875
X9.9417Y-7.675
X9.9536Y-8.323
X9.9696Y-2.165
X10.0228Y-2.875
X10.0908Y-7.675
X10.1027Y-8.323
X10.1187Y-2.165
X10.122Y-3.8023
X10.122Y-3.9514
X10.122Y-4.1005
X10.122Y-4.2496
X10.122Y-4.3987
X10.122Y-4.5477
X10.122Y-4.6968
X10.122Y-4.8459
X10.122Y-4.995
X10.122Y-5.1441
X10.122Y-5.2932
X10.122Y-5.4423
X10.122Y-5.5913
X10.122Y-5.7404
X10.122Y-5.8895
X10.122Y-6.0386
X10.122Y-6.1877
X10.122Y-6.3368
X10.122Y-6.4859
X10.122Y-6.635
X10.1719Y-2.875
X10.2399Y-7.675
X10.2517Y-8.323
X10.2677Y-2.165
X10.32Y-3.8743
X10.32Y-4.0234
X10.32Y-4.1725
X10.32Y-4.3216
X10.32Y-4.4707
X10.32Y-4.6197
X10.32Y-4.7688
X10.32Y-4.9179
X10.32Y-5.067
X10.32Y-5.2161
X10.32Y-5.3652
X10.32Y-5.5143
X10.32Y-5.6633
X10.32Y-5.8124
X10.32Y-5.9615
X10.32Y-6.1106
X10.32Y-6.2597
X10.32Y-6.4088
X10.32Y-6.5579
X10.32Y-6.707
X10.321Y-2.875
X10.389Y-7.675
X10.4008Y-8.323
X10.4168Y-2.165
X10.47Y-2.875
X10.53Y-3.7983
X10.53Y-3.9474
X10.53Y-4.0965
X10.53Y-4.2456
X10.53Y-4.3947
X10.53Y-4.5437
X10.53Y-4.6928
X10.53Y-4.8419
X10.53Y-4.991
X10.53Y-5.1401
X10.53Y-5.2892
X10.53Y-5.4383
X10.53Y-5.5873
X10.53Y-5.7364
X10.53Y-5.8855
X10.53Y-6.0346
X10.53Y-6.1837
X10.53Y-6.3328
X10.53Y-6.4819
X10.53Y-6.631
X10.538Y-7.675
X10.544Y-3.245
X10.5499Y-8.323
X10.55Y-2.413
X10.5659Y-2.165
X10.566Y-7.241
X10.6191Y-2.875
X10.6601Y-7.5085
X10.6621Y-7.3334
X10.6871Y-7.675
X10.699Y-8.323
X10.715Y-2.165
X10.722Y-3.8723
X10.722Y-4.0214
X10.722Y-4.1705
X10.722Y-4.3196
X10.722Y-4.4687
X10.722Y-4.6177
X10.722Y-4.7668
X10.722Y-4.9159
X10.722Y-5.065
X10.722Y-5.2141
X10.722Y-5.3632
X10.722Y-5.5123
X10.722Y-5.6613
X10.722Y-5.8104
X10.722Y-5.9595
X10.722Y-6.1086
X10.722Y-6.2577
X10.722Y-6.4068
X10.722Y-6.5559
X10.722Y-6.705
X10.73Y-3.245
X10.7682Y-2.875
X10.7719Y-7.5085
X10.7739Y-7.3334
X10.8362Y-7.675
X10.846Y-7.241
X10.8481Y-8.323
X10.8641Y-2.165
X10.89Y-3.245
X10.9173Y-2.875
X10.9853Y-7.675
X10.9972Y-8.323
X11.0132Y-2.165
X11.0664Y-2.875
X11.074Y-2.417
X11.1344Y-7.675
X11.1463Y-8.323
X11.1623Y-2.165
X11.2155Y-2.875
X11.2463Y-4.0431
X11.2463Y-4.1921
X11.2463Y-4.3412
X11.2835Y-7.675
X11.2954Y-8.323
X11.3114Y-2.165
X11.329Y-4.7554
X11.329Y-4.9045
X11.329Y-5.0536
X11.356Y-5.2081
X11.356Y-5.3572
X11.356Y-5.5063
X11.356Y-5.6553
X11.356Y-5.8044
X11.356Y-5.9535
X11.356Y-6.1026
X11.356Y-6.2517
X11.356Y-6.4008
X11.356Y-6.5499
X11.356Y-6.699
X11.3646Y-2.875
X11.4038Y-3.8189
X11.4038Y-3.968
X11.4038Y-4.1171
X11.4038Y-4.2661
X11.4038Y-4.4152
X11.4038Y-4.5643
X11.4038Y-4.6956
X11.4274Y-4.8339
X11.4274Y-4.983
X11.4326Y-7.675
X11.4444Y-8.323
X11.4604Y-2.165
X11.478Y-5.135
X11.478Y-5.2841
X11.478Y-5.4332
X11.478Y-5.5823
X11.478Y-5.7313
X11.478Y-5.8804
X11.478Y-6.0295
X11.478Y-6.1786
X11.478Y-6.3277
X11.478Y-6.4768
X11.478Y-6.6259
X11.5137Y-2.875
X11.5817Y-7.675
X11.5935Y-8.323
X11.6095Y-2.165
X11.6424Y-6.397
X11.6627Y-2.875
X11.7307Y-7.675
X11.7426Y-8.323
X11.7543Y-6.397
X11.7586Y-2.165
X11.8118Y-2.875
X11.8363Y-6.0539
X11.8363Y-6.1657
X11.8661Y-6.397
X11.8798Y-7.675
X11.8917Y-8.323
X11.9077Y-2.165
X11.9199Y-6.7211
X11.9219Y-6.546
X11.952Y-2.9452
X11.952Y-3.0943
X11.952Y-3.2434
X11.952Y-3.3925
X11.952Y-3.5589
X11.952Y-3.708
X11.952Y-3.857
X11.952Y-4.0061
X11.952Y-4.1552
X11.952Y-4.3043
X11.952Y-4.4534
X11.9779Y-6.397
X11.978Y-6.011
X11.978Y-6.1228
X11.978Y-6.2346
X11.9865Y-5.876
X12.0289Y-3.793
X12.0289Y-7.675
X12.0317Y-6.7211
X12.0337Y-6.546
X12.038Y-2.425
X12.038Y-2.559
X12.0408Y-8.323
X12.042Y-2.709
X12.0568Y-2.165
X12.0774Y-7.4298
X12.0794Y-7.2546
X12.0837Y-6.395
X12.128Y-4.663
X12.13Y-4.453
X12.1356Y-5.876
X12.16Y-3.0878
X12.16Y-3.2369
X12.16Y-3.386
X12.178Y-3.793
X12.178Y-7.675
X12.1892Y-7.4298
X12.1899Y-8.323
X12.1912Y-7.2546
X12.2059Y-2.165
X12.2075Y-6.7151
X12.2092Y-6.405
X12.2095Y-6.5399
X12.2696Y-7.8668
X12.2771Y-4.663
X12.2791Y-4.453
X12.2847Y-5.876
X12.3193Y-6.7151
X12.339Y-8.323
X12.355Y-2.165
X12.3814Y-7.8668
X12.3877Y-7.668
X12.4022Y-7.5184
X12.4042Y-7.3432
X12.4312Y-6.7151
X12.4337Y-5.876
X12.458Y-3.698
X12.458Y-3.847
X12.4881Y-8.323
X12.491Y-5.374
X12.4933Y-7.8668
X12.4995Y-7.668
X12.5041Y-2.165
X12.514Y-7.5184
X12.516Y-7.3432
X12.543Y-6.7151
X12.5449Y-6.5399
X12.5479Y-3.7924
X12.55Y-3.157
X12.552Y-2.367
X12.552Y-3.067
X12.576Y-3.405
X12.577Y-3.521
X12.5828Y-5.876
X12.6051Y-7.8668
X12.6114Y-7.668
X12.6371Y-8.323
X12.6407Y-4.521
X12.6427Y-4.311
X12.6488Y-6.7131
X12.6508Y-6.5379
X12.6531Y-2.165
X12.662Y-5.193
X12.669Y-3.405
X12.67Y-3.521
X12.6739Y-7.5184
X12.6758Y-7.3432
X12.682Y-2.54
X12.697Y-3.7924
X12.7109Y-7.8648
X12.717Y-5.565
X12.721Y-3.203
X12.7232Y-7.668
X12.7319Y-5.876
X12.7743Y-6.7231
X12.7762Y-6.5479
X12.7857Y-7.5184
X12.7862Y-8.323
X12.7877Y-7.3432
X12.7898Y-4.521
X12.7918Y-4.311
X12.8022Y-2.165
X12.812Y-3.113
X12.829Y-7.666
X12.8861Y-6.7231
X12.888Y-6.5479
X12.889Y-5.411
X12.914Y-3.031
X12.9373Y-7.4633
X12.9389Y-4.521
X12.9409Y-4.311
X12.9513Y-2.165
X12.976Y-2.789
X12.976Y-3.714
X13.0085Y-6.729
X13.0105Y-6.5538
X13.042Y-5.27
X13.071Y-5.5489
X13.073Y-5.665
X13.0808Y-5.7919
X13.088Y-4.521
X13.09Y-4.311
X13.094Y-7.455
X13.107Y-3.282
X13.12Y-3.513
X13.1203Y-6.729
X13.1223Y-6.5538
X13.1832Y-5.5508
X13.1852Y-5.6669
X13.191Y-5.79
X13.215Y-3.281
X13.216Y-3.513
X13.288Y-4.637
X13.288Y-4.787
X13.305Y-5.549
X13.3051Y-5.667
X13.311Y-5.789
X13.3129Y-6.9263
X13.3149Y-7.0321
X13.3149Y-7.1439
X13.3149Y-7.2557
X13.3149Y-7.3675
X13.3168Y-6.1389
X13.317Y-5.902
X13.317Y-6.0138
X13.3188Y-6.2447
X13.3188Y-6.3565
X13.3188Y-6.4683
X13.3188Y-6.5801
X13.3229Y-6.689
X13.3229Y-6.8008
X13.323Y-5.306
X13.327Y-5.128
X13.331Y-4.94
X13.356Y-7.901
X13.406Y-3.503
X13.414Y-2.385
X13.474Y-7.793
X13.582Y-2.466
X13.582Y-2.615
X13.582Y-2.7641
X13.582Y-2.9132
X13.582Y-3.0623
X13.582Y-3.2114
X13.582Y-3.3605
X13.582Y-3.5096
X13.582Y-3.6587
X13.582Y-3.8077
X13.582Y-3.9568
X13.582Y-4.1059
X13.582Y-4.255
X13.582Y-4.4041
X13.582Y-4.5532
X13.582Y-4.7023
X13.582Y-4.8513
X13.582Y-5.0004
X13.582Y-5.1495
X13.582Y-5.2986
X13.582Y-5.4477
X13.582Y-5.5968
X13.582Y-5.7459
X13.582Y-5.895
X13.582Y-6.044
X13.582Y-6.1931
X13.582Y-6.3422
X13.582Y-6.4913
X13.582Y-6.6404
X13.582Y-6.7895
X13.582Y-6.9386
X13.582Y-7.0877
X13.582Y-7.2367
X13.582Y-7.3858
X13.582Y-7.5349
X13.582Y-7.684
T3
X12.242Y-3.476
X12.342Y-3.476
X12.442Y-3.476
X12.753Y-3.477
X12.853Y-3.477
X12.953Y-3.477
T4
X12.3962Y-2.4557
X12.3962Y-2.5541
X12.3962Y-2.6525
X12.3962Y-2.751
X12.3962Y-2.8494
X12.3962Y-2.9478
X12.3962Y-3.0462
X13.366Y-2.6118
X13.366Y-2.7103
X13.366Y-2.8087
X13.366Y-2.9071
X13.366Y-3.0055
X13.366Y-3.104
X13.366Y-3.2024
T5
X4.6321Y-4.2482
X4.6321Y-4.7493
X4.6321Y-5.5867
X4.6321Y-6.0878
X6.0101Y-3.9889
X6.0101Y-4.3786
X6.0101Y-4.9731
X6.0101Y-5.3629
X6.0101Y-5.9377
X6.0101Y-6.3274
X7.2699Y-3.9889
X7.2699Y-4.3786
X7.2699Y-4.9731
X7.2699Y-5.3629
X7.2699Y-5.9377
X7.2699Y-6.3274
X8.5298Y-3.9889
X8.5298Y-4.3786
X8.5298Y-4.9731
X8.5298Y-5.3629
X8.5298Y-5.9377
X8.5298Y-6.3274
X9.7896Y-3.9889
X9.7896Y-4.3786
X9.7896Y-4.9731
X9.7896Y-5.3629
X9.7896Y-5.9377
X9.7896Y-6.3274
X11.0495Y-3.9889
X11.0495Y-4.3786
X11.0495Y-4.9731
X11.0495Y-5.3629
X11.0495Y-5.9377
X11.0495Y-6.3274
X11.7572Y-5.8343
X12.2862Y-5.361
X12.3294Y-4.9187
X13.038Y-4.958
T6
X5.0674Y-2.4318
X5.0674Y-3.0302
X5.0674Y-3.2271
X5.0674Y-3.4239
X5.081Y-7.0538
X5.081Y-7.2507
X5.081Y-7.4475
X5.081Y-8.046
X5.3626Y-2.4318
X5.3626Y-3.0302
X5.3626Y-3.2271
X5.3626Y-3.4239
X5.3763Y-7.0538
X5.3763Y-7.2507
X5.3763Y-7.4475
X5.3763Y-8.046
X6.3743Y-2.4318
X6.3743Y-3.0302
X6.3743Y-3.2271
X6.3743Y-3.4239
X6.3743Y-7.0499
X6.3743Y-7.2467
X6.3743Y-7.4436
X6.3743Y-8.042
X6.6695Y-2.4318
X6.6695Y-3.0302
X6.6695Y-3.2271
X6.6695Y-3.4239
X6.6695Y-7.0499
X6.6695Y-7.2467
X6.6695Y-7.4436
X6.6695Y-8.042
X7.5947Y-2.4318
X7.5947Y-3.0302
X7.5947Y-3.2271
X7.5947Y-3.4239
X7.5947Y-7.0499
X7.5947Y-7.2467
X7.5947Y-7.4436
X7.5947Y-8.042
X7.89Y-2.4318
X7.89Y-3.0302
X7.89Y-3.2271
X7.89Y-3.4239
X7.89Y-7.0499
X7.89Y-7.2467
X7.89Y-7.4436
X7.89Y-8.042
X8.8152Y-2.4318
X8.8152Y-3.0302
X8.8152Y-3.2271
X8.8152Y-3.4239
X8.8152Y-7.0499
X8.8152Y-7.2467
X8.8152Y-7.4436
X8.8152Y-8.042
X9.1105Y-2.4318
X9.1105Y-3.0302
X9.1105Y-3.2271
X9.1105Y-3.4239
X9.1105Y-7.0499
X9.1105Y-7.2467
X9.1105Y-7.4436
X9.1105Y-8.042
X10.0357Y-2.4318
X10.0357Y-3.0302
X10.0357Y-3.2271
X10.0357Y-3.4239
X10.0357Y-7.0499
X10.0357Y-7.2467
X10.0357Y-7.4436
X10.0357Y-8.042
X10.331Y-2.4318
X10.331Y-3.0302
X10.331Y-3.2271
X10.331Y-3.4239
X10.331Y-7.0499
X10.331Y-7.2467
X10.331Y-7.4436
X10.331Y-8.042
X11.2424Y-2.4355
X11.2424Y-3.0339
X11.2424Y-3.2308
X11.2424Y-3.4276
X11.2562Y-7.0499
X11.2562Y-7.2467
X11.2562Y-7.4436
X11.2562Y-8.042
X11.5376Y-2.4355
X11.5376Y-3.0339
X11.5376Y-3.2308
X11.5376Y-3.4276
X11.5514Y-7.0499
X11.5514Y-7.2467
X11.5514Y-7.4436
X11.5514Y-8.042
T7
X13.311Y-4.182
X13.311Y-4.382
T8
X13.05Y-3.991
T9
X12.0078Y-5.5837
X12.6837Y-4.0919
X12.6837Y-4.958
T10
X11.649Y-5.578
X12.158Y-4.093
X12.396Y-6.457
T11
X4.1991Y-2.4121
X4.1991Y-8.1208
X13.1361Y-2.4121
X13.1361Y-8.1208
M30
