%TF.GenerationSoftware,KiCad,Pcbnew,7.0.10*%
%TF.CreationDate,2024-05-11T12:56:40+02:00*%
%TF.ProjectId,LPF_HF+6,4c50465f-4846-42b3-962e-6b696361645f,rev?*%
%TF.SameCoordinates,Original*%
%TF.FileFunction,Drillmap*%
%TF.FilePolarity,Positive*%
%FSLAX45Y45*%
G04 Gerber Fmt 4.5, Leading zero omitted, Abs format (unit mm)*
G04 Created by KiCad (PCBNEW 7.0.10) date 2024-05-11 12:56:40*
%MOMM*%
%LPD*%
G01*
G04 APERTURE LIST*
%ADD10C,0.100000*%
%ADD11C,0.200000*%
G04 APERTURE END LIST*
D10*
X9665640Y-20826715D02*
G75*
G03*
X10165640Y-21326715I500000J0D01*
G01*
X34065640Y-21326715D02*
G75*
G03*
X34665640Y-20726715I0J600000D01*
G01*
X34065640Y-21326715D02*
X10165640Y-21326715D01*
X9665640Y-20826715D02*
X9665640Y-5826715D01*
X34665640Y-5826715D02*
X34665640Y-20726715D01*
X10165640Y-5326715D02*
X34165640Y-5326715D01*
X10165640Y-5326715D02*
G75*
G03*
X9665640Y-5826715I0J-500000D01*
G01*
X34665640Y-5826715D02*
G75*
G03*
X34165640Y-5326715I-500000J0D01*
G01*
D11*
X9921417Y-21643199D02*
X9921417Y-21443199D01*
X9921417Y-21443199D02*
X9969036Y-21443199D01*
X9969036Y-21443199D02*
X9997607Y-21452723D01*
X9997607Y-21452723D02*
X10016655Y-21471771D01*
X10016655Y-21471771D02*
X10026179Y-21490818D01*
X10026179Y-21490818D02*
X10035703Y-21528913D01*
X10035703Y-21528913D02*
X10035703Y-21557485D01*
X10035703Y-21557485D02*
X10026179Y-21595580D01*
X10026179Y-21595580D02*
X10016655Y-21614628D01*
X10016655Y-21614628D02*
X9997607Y-21633675D01*
X9997607Y-21633675D02*
X9969036Y-21643199D01*
X9969036Y-21643199D02*
X9921417Y-21643199D01*
X10121417Y-21643199D02*
X10121417Y-21509866D01*
X10121417Y-21547961D02*
X10130941Y-21528913D01*
X10130941Y-21528913D02*
X10140464Y-21519390D01*
X10140464Y-21519390D02*
X10159512Y-21509866D01*
X10159512Y-21509866D02*
X10178560Y-21509866D01*
X10245226Y-21643199D02*
X10245226Y-21509866D01*
X10245226Y-21443199D02*
X10235703Y-21452723D01*
X10235703Y-21452723D02*
X10245226Y-21462247D01*
X10245226Y-21462247D02*
X10254750Y-21452723D01*
X10254750Y-21452723D02*
X10245226Y-21443199D01*
X10245226Y-21443199D02*
X10245226Y-21462247D01*
X10369036Y-21643199D02*
X10349988Y-21633675D01*
X10349988Y-21633675D02*
X10340464Y-21614628D01*
X10340464Y-21614628D02*
X10340464Y-21443199D01*
X10473798Y-21643199D02*
X10454750Y-21633675D01*
X10454750Y-21633675D02*
X10445226Y-21614628D01*
X10445226Y-21614628D02*
X10445226Y-21443199D01*
X10702369Y-21643199D02*
X10702369Y-21443199D01*
X10702369Y-21443199D02*
X10769036Y-21586056D01*
X10769036Y-21586056D02*
X10835703Y-21443199D01*
X10835703Y-21443199D02*
X10835703Y-21643199D01*
X11016655Y-21643199D02*
X11016655Y-21538437D01*
X11016655Y-21538437D02*
X11007131Y-21519390D01*
X11007131Y-21519390D02*
X10988084Y-21509866D01*
X10988084Y-21509866D02*
X10949988Y-21509866D01*
X10949988Y-21509866D02*
X10930941Y-21519390D01*
X11016655Y-21633675D02*
X10997607Y-21643199D01*
X10997607Y-21643199D02*
X10949988Y-21643199D01*
X10949988Y-21643199D02*
X10930941Y-21633675D01*
X10930941Y-21633675D02*
X10921417Y-21614628D01*
X10921417Y-21614628D02*
X10921417Y-21595580D01*
X10921417Y-21595580D02*
X10930941Y-21576533D01*
X10930941Y-21576533D02*
X10949988Y-21567009D01*
X10949988Y-21567009D02*
X10997607Y-21567009D01*
X10997607Y-21567009D02*
X11016655Y-21557485D01*
X11111893Y-21509866D02*
X11111893Y-21709866D01*
X11111893Y-21519390D02*
X11130941Y-21509866D01*
X11130941Y-21509866D02*
X11169036Y-21509866D01*
X11169036Y-21509866D02*
X11188083Y-21519390D01*
X11188083Y-21519390D02*
X11197607Y-21528913D01*
X11197607Y-21528913D02*
X11207131Y-21547961D01*
X11207131Y-21547961D02*
X11207131Y-21605104D01*
X11207131Y-21605104D02*
X11197607Y-21624152D01*
X11197607Y-21624152D02*
X11188083Y-21633675D01*
X11188083Y-21633675D02*
X11169036Y-21643199D01*
X11169036Y-21643199D02*
X11130941Y-21643199D01*
X11130941Y-21643199D02*
X11111893Y-21633675D01*
X11292845Y-21624152D02*
X11302369Y-21633675D01*
X11302369Y-21633675D02*
X11292845Y-21643199D01*
X11292845Y-21643199D02*
X11283322Y-21633675D01*
X11283322Y-21633675D02*
X11292845Y-21624152D01*
X11292845Y-21624152D02*
X11292845Y-21643199D01*
X11292845Y-21519390D02*
X11302369Y-21528913D01*
X11302369Y-21528913D02*
X11292845Y-21538437D01*
X11292845Y-21538437D02*
X11283322Y-21528913D01*
X11283322Y-21528913D02*
X11292845Y-21519390D01*
X11292845Y-21519390D02*
X11292845Y-21538437D01*
M02*
