%TF.GenerationSoftware,KiCad,Pcbnew,7.0.10*%
%TF.CreationDate,2024-05-11T12:56:43+02:00*%
%TF.ProjectId,LPF_HF+6,4c50465f-4846-42b3-962e-6b696361645f,rev?*%
%TF.SameCoordinates,Original*%
%TF.FileFunction,Soldermask,Top*%
%TF.FilePolarity,Negative*%
%FSLAX46Y46*%
G04 Gerber Fmt 4.6, Leading zero omitted, Abs format (unit mm)*
G04 Created by KiCad (PCBNEW 7.0.10) date 2024-05-11 12:56:43*
%MOMM*%
%LPD*%
G01*
G04 APERTURE LIST*
G04 Aperture macros list*
%AMRoundRect*
0 Rectangle with rounded corners*
0 $1 Rounding radius*
0 $2 $3 $4 $5 $6 $7 $8 $9 X,Y pos of 4 corners*
0 Add a 4 corners polygon primitive as box body*
4,1,4,$2,$3,$4,$5,$6,$7,$8,$9,$2,$3,0*
0 Add four circle primitives for the rounded corners*
1,1,$1+$1,$2,$3*
1,1,$1+$1,$4,$5*
1,1,$1+$1,$6,$7*
1,1,$1+$1,$8,$9*
0 Add four rect primitives between the rounded corners*
20,1,$1+$1,$2,$3,$4,$5,0*
20,1,$1+$1,$4,$5,$6,$7,0*
20,1,$1+$1,$6,$7,$8,$9,0*
20,1,$1+$1,$8,$9,$2,$3,0*%
G04 Aperture macros list end*
%ADD10C,4.344165*%
%ADD11C,0.150000*%
%ADD12RoundRect,0.150000X-0.725000X-0.150000X0.725000X-0.150000X0.725000X0.150000X-0.725000X0.150000X0*%
%ADD13RoundRect,2.500000X2.500000X4.500000X-2.500000X4.500000X-2.500000X-4.500000X2.500000X-4.500000X0*%
%ADD14C,6.000000*%
%ADD15RoundRect,0.237500X-0.237500X0.300000X-0.237500X-0.300000X0.237500X-0.300000X0.237500X0.300000X0*%
%ADD16RoundRect,0.237500X0.250000X0.237500X-0.250000X0.237500X-0.250000X-0.237500X0.250000X-0.237500X0*%
%ADD17RoundRect,0.237500X0.300000X0.237500X-0.300000X0.237500X-0.300000X-0.237500X0.300000X-0.237500X0*%
%ADD18C,2.600000*%
%ADD19C,3.000000*%
%ADD20C,1.440000*%
%ADD21RoundRect,0.112500X-0.112500X0.187500X-0.112500X-0.187500X0.112500X-0.187500X0.112500X0.187500X0*%
%ADD22RoundRect,0.237500X0.237500X-0.300000X0.237500X0.300000X-0.237500X0.300000X-0.237500X-0.300000X0*%
%ADD23RoundRect,0.250000X-0.650000X1.000000X-0.650000X-1.000000X0.650000X-1.000000X0.650000X1.000000X0*%
%ADD24RoundRect,0.112500X0.187500X0.112500X-0.187500X0.112500X-0.187500X-0.112500X0.187500X-0.112500X0*%
%ADD25RoundRect,0.250000X0.725000X-0.600000X0.725000X0.600000X-0.725000X0.600000X-0.725000X-0.600000X0*%
%ADD26O,1.950000X1.700000*%
%ADD27RoundRect,0.237500X-0.237500X0.250000X-0.237500X-0.250000X0.237500X-0.250000X0.237500X0.250000X0*%
%ADD28RoundRect,0.250000X-0.400000X-0.625000X0.400000X-0.625000X0.400000X0.625000X-0.400000X0.625000X0*%
%ADD29RoundRect,0.237500X-0.300000X-0.237500X0.300000X-0.237500X0.300000X0.237500X-0.300000X0.237500X0*%
%ADD30RoundRect,0.250000X0.412500X0.650000X-0.412500X0.650000X-0.412500X-0.650000X0.412500X-0.650000X0*%
%ADD31R,1.500000X2.000000*%
%ADD32R,3.800000X2.000000*%
%ADD33RoundRect,0.249999X-1.075001X0.450001X-1.075001X-0.450001X1.075001X-0.450001X1.075001X0.450001X0*%
%ADD34RoundRect,0.250000X0.325000X0.650000X-0.325000X0.650000X-0.325000X-0.650000X0.325000X-0.650000X0*%
%ADD35RoundRect,0.250000X-0.275000X-0.350000X0.275000X-0.350000X0.275000X0.350000X-0.275000X0.350000X0*%
%ADD36RoundRect,0.249999X1.075001X-0.450001X1.075001X0.450001X-1.075001X0.450001X-1.075001X-0.450001X0*%
%ADD37R,3.000000X3.000000*%
%ADD38C,5.000000*%
%ADD39RoundRect,0.250000X-0.650000X0.412500X-0.650000X-0.412500X0.650000X-0.412500X0.650000X0.412500X0*%
%ADD40RoundRect,0.237500X0.237500X-0.250000X0.237500X0.250000X-0.237500X0.250000X-0.237500X-0.250000X0*%
%ADD41RoundRect,0.237500X-0.250000X-0.237500X0.250000X-0.237500X0.250000X0.237500X-0.250000X0.237500X0*%
%ADD42RoundRect,0.150000X0.725000X0.150000X-0.725000X0.150000X-0.725000X-0.150000X0.725000X-0.150000X0*%
G04 APERTURE END LIST*
D10*
X108828482Y-206267154D02*
G75*
G03*
X104484318Y-206267154I-2172082J0D01*
G01*
X104484318Y-206267154D02*
G75*
G03*
X108828482Y-206267154I2172082J0D01*
G01*
X108828482Y-61267154D02*
G75*
G03*
X104484318Y-61267154I-2172082J0D01*
G01*
X104484318Y-61267154D02*
G75*
G03*
X108828482Y-61267154I2172082J0D01*
G01*
X335828482Y-206267154D02*
G75*
G03*
X331484318Y-206267154I-2172082J0D01*
G01*
X331484318Y-206267154D02*
G75*
G03*
X335828482Y-206267154I2172082J0D01*
G01*
X335828482Y-61267154D02*
G75*
G03*
X331484318Y-61267154I-2172082J0D01*
G01*
X331484318Y-61267154D02*
G75*
G03*
X335828482Y-61267154I2172082J0D01*
G01*
D11*
X336456400Y-170017154D02*
X309306400Y-170017154D01*
X309306400Y-167117154D01*
X336456400Y-167117154D01*
X336456400Y-170017154D01*
G36*
X336456400Y-170017154D02*
G01*
X309306400Y-170017154D01*
X309306400Y-167117154D01*
X336456400Y-167117154D01*
X336456400Y-170017154D01*
G37*
D12*
%TO.C,U2*%
X320005000Y-67385154D03*
X320005000Y-68655154D03*
X320005000Y-69925154D03*
X320005000Y-71195154D03*
X320005000Y-72465154D03*
X320005000Y-73735154D03*
X320005000Y-75005154D03*
X320005000Y-76275154D03*
X325155000Y-76275154D03*
X325155000Y-75005154D03*
X325155000Y-73735154D03*
X325155000Y-72465154D03*
X325155000Y-71195154D03*
X325155000Y-69925154D03*
X325155000Y-68655154D03*
X325155000Y-67385154D03*
%TD*%
D13*
%TO.C,J5*%
X331606400Y-157417154D03*
D14*
X320606400Y-157417154D03*
%TD*%
D15*
%TO.C,C20*%
X332130400Y-95072254D03*
X332130400Y-96797254D03*
%TD*%
D16*
%TO.C,R8*%
X323928200Y-91654554D03*
X322103200Y-91654554D03*
%TD*%
D17*
%TO.C,C8*%
X339850900Y-97611154D03*
X338125900Y-97611154D03*
%TD*%
D18*
%TO.C,REL3*%
X223906400Y-204267154D03*
X231406400Y-204267154D03*
X231406400Y-189067154D03*
X231406400Y-184067154D03*
X231406400Y-179067154D03*
X223906400Y-189067154D03*
X223906400Y-184067154D03*
X223906400Y-179067154D03*
%TD*%
D15*
%TO.C,C46*%
X336448400Y-79451254D03*
X336448400Y-81176254D03*
%TD*%
D19*
%TO.C,L7*%
X280656400Y-136216901D03*
X280656400Y-126317407D03*
%TD*%
D16*
%TO.C,R4*%
X335428600Y-71449154D03*
X333603600Y-71449154D03*
%TD*%
D20*
%TO.C,RV1*%
X323926200Y-88314754D03*
X326466200Y-88314754D03*
X329006200Y-88314754D03*
%TD*%
D21*
%TO.C,D16*%
X331301800Y-68829154D03*
X331301800Y-70929154D03*
%TD*%
D19*
%TO.C,L9*%
X216656400Y-136216901D03*
X216656400Y-126317407D03*
%TD*%
D22*
%TO.C,C16*%
X341528400Y-92784054D03*
X341528400Y-91059054D03*
%TD*%
D19*
%TO.C,L5*%
X152656400Y-160716901D03*
X152656400Y-150817407D03*
%TD*%
D21*
%TO.C,D18*%
X327609200Y-72498754D03*
X327609200Y-74598754D03*
%TD*%
D23*
%TO.C,D19*%
X326034400Y-94201154D03*
X326034400Y-98201154D03*
%TD*%
D18*
%TO.C,REL9*%
X231406400Y-61767154D03*
X223906400Y-61767154D03*
X223906400Y-76967154D03*
X223906400Y-81967154D03*
X223906400Y-86967154D03*
X231406400Y-76967154D03*
X231406400Y-81967154D03*
X231406400Y-86967154D03*
%TD*%
D24*
%TO.C,D21*%
X328980800Y-81304354D03*
X326880800Y-81304354D03*
%TD*%
D19*
%TO.C,L4*%
X184656400Y-160716901D03*
X184656400Y-150817407D03*
%TD*%
D25*
%TO.C,J1*%
X339496400Y-81340554D03*
D26*
X339496400Y-78840554D03*
X339496400Y-76340554D03*
X339496400Y-73840554D03*
X339496400Y-71340554D03*
X339496400Y-68840554D03*
X339496400Y-66340554D03*
%TD*%
D22*
%TO.C,C49*%
X333197200Y-77366254D03*
X333197200Y-75641254D03*
%TD*%
D27*
%TO.C,R12*%
X330530200Y-81179254D03*
X330530200Y-83004254D03*
%TD*%
D17*
%TO.C,C19*%
X322809900Y-78027754D03*
X321084900Y-78027754D03*
%TD*%
D22*
%TO.C,C51*%
X336397600Y-77366254D03*
X336397600Y-75641254D03*
%TD*%
D25*
%TO.C,J4*%
X314863200Y-77374354D03*
D26*
X314863200Y-74874354D03*
X314863200Y-72374354D03*
X314863200Y-69874354D03*
X314863200Y-67374354D03*
X314863200Y-64874354D03*
X314863200Y-62374354D03*
%TD*%
D18*
%TO.C,REL10*%
X200406400Y-61767154D03*
X192906400Y-61767154D03*
X192906400Y-76967154D03*
X192906400Y-81967154D03*
X192906400Y-86967154D03*
X200406400Y-76967154D03*
X200406400Y-81967154D03*
X200406400Y-86967154D03*
%TD*%
%TO.C,REL8*%
X262406400Y-61767154D03*
X254906400Y-61767154D03*
X254906400Y-76967154D03*
X254906400Y-81967154D03*
X254906400Y-86967154D03*
X262406400Y-76967154D03*
X262406400Y-81967154D03*
X262406400Y-86967154D03*
%TD*%
D21*
%TO.C,D17*%
X329920600Y-73751954D03*
X329920600Y-75851954D03*
%TD*%
D28*
%TO.C,R1*%
X337692400Y-102183154D03*
X340792400Y-102183154D03*
%TD*%
D29*
%TO.C,C44*%
X325730700Y-91705354D03*
X327455700Y-91705354D03*
%TD*%
D30*
%TO.C,C7*%
X340855700Y-99643154D03*
X337730700Y-99643154D03*
%TD*%
D19*
%TO.C,L2*%
X248656400Y-160716901D03*
X248656400Y-150817407D03*
%TD*%
D31*
%TO.C,U1*%
X334746600Y-92327954D03*
X337046600Y-92327954D03*
D32*
X337046600Y-86027954D03*
D31*
X339346600Y-92327954D03*
%TD*%
D33*
%TO.C,R6*%
X322503800Y-93928154D03*
X322503800Y-98728154D03*
%TD*%
D15*
%TO.C,C47*%
X334797400Y-79451254D03*
X334797400Y-81176254D03*
%TD*%
D18*
%TO.C,REL1*%
X285906400Y-204267154D03*
X293406400Y-204267154D03*
X293406400Y-189067154D03*
X293406400Y-184067154D03*
X293406400Y-179067154D03*
X285906400Y-189067154D03*
X285906400Y-184067154D03*
X285906400Y-179067154D03*
%TD*%
D24*
%TO.C,D22*%
X316104600Y-82574354D03*
X314004600Y-82574354D03*
%TD*%
D34*
%TO.C,C15*%
X339701400Y-95579154D03*
X336751400Y-95579154D03*
%TD*%
D22*
%TO.C,C39*%
X332130400Y-93292054D03*
X332130400Y-91567054D03*
%TD*%
D18*
%TO.C,REL7*%
X293056000Y-61862154D03*
X285556000Y-61862154D03*
X285556000Y-77062154D03*
X285556000Y-82062154D03*
X285556000Y-87062154D03*
X293056000Y-77062154D03*
X293056000Y-82062154D03*
X293056000Y-87062154D03*
%TD*%
%TO.C,REL2*%
X254906400Y-204267154D03*
X262406400Y-204267154D03*
X262406400Y-189067154D03*
X262406400Y-184067154D03*
X262406400Y-179067154D03*
X254906400Y-189067154D03*
X254906400Y-184067154D03*
X254906400Y-179067154D03*
%TD*%
D19*
%TO.C,L15*%
X216656400Y-111216901D03*
X216656400Y-101317407D03*
%TD*%
D35*
%TO.C,L20*%
X326383000Y-84657154D03*
X328683000Y-84657154D03*
%TD*%
D15*
%TO.C,C48*%
X333171800Y-79476654D03*
X333171800Y-81201654D03*
%TD*%
D16*
%TO.C,R2*%
X335479400Y-68883754D03*
X333654400Y-68883754D03*
%TD*%
D18*
%TO.C,REL6*%
X129057400Y-204367354D03*
X136557400Y-204367354D03*
X136557400Y-189167354D03*
X136557400Y-184167354D03*
X136557400Y-179167354D03*
X129057400Y-189167354D03*
X129057400Y-184167354D03*
X129057400Y-179167354D03*
%TD*%
%TO.C,REL4*%
X192906400Y-204267154D03*
X200406400Y-204267154D03*
X200406400Y-189067154D03*
X200406400Y-184067154D03*
X200406400Y-179067154D03*
X192906400Y-189067154D03*
X192906400Y-184067154D03*
X192906400Y-179067154D03*
%TD*%
D36*
%TO.C,R10*%
X306070000Y-98741154D03*
X306070000Y-93941154D03*
%TD*%
D35*
%TO.C,L21*%
X313498200Y-84606354D03*
X315798200Y-84606354D03*
%TD*%
D13*
%TO.C,J3*%
X331506400Y-180467154D03*
D14*
X320506400Y-180467154D03*
%TD*%
D18*
%TO.C,REL12*%
X136211000Y-61767154D03*
X128711000Y-61767154D03*
X128711000Y-76967154D03*
X128711000Y-81967154D03*
X128711000Y-86967154D03*
X136211000Y-76967154D03*
X136211000Y-81967154D03*
X136211000Y-86967154D03*
%TD*%
D23*
%TO.C,D20*%
X312902600Y-94214154D03*
X312902600Y-98214154D03*
%TD*%
D37*
%TO.C,J2*%
X338099400Y-111301754D03*
D19*
X338099400Y-106221754D03*
%TD*%
D16*
%TO.C,R3*%
X335403200Y-73735154D03*
X333578200Y-73735154D03*
%TD*%
D19*
%TO.C,L6*%
X117656400Y-154631115D03*
X117656400Y-141903193D03*
%TD*%
D18*
%TO.C,REL5*%
X161906400Y-204267154D03*
X169406400Y-204267154D03*
X169406400Y-189067154D03*
X169406400Y-184067154D03*
X169406400Y-179067154D03*
X161906400Y-189067154D03*
X161906400Y-184067154D03*
X161906400Y-179067154D03*
%TD*%
D17*
%TO.C,C45*%
X310945700Y-91743754D03*
X309220700Y-91743754D03*
%TD*%
D38*
%TO.C,L19*%
X304997425Y-141826779D03*
X320553775Y-157383129D03*
D19*
X312068493Y-136169925D03*
X298633464Y-148190740D03*
%TD*%
D39*
%TO.C,C17*%
X334264000Y-94727854D03*
X334264000Y-97852854D03*
%TD*%
D19*
%TO.C,L1*%
X280656400Y-160716901D03*
X280656400Y-150817407D03*
%TD*%
%TO.C,L14*%
X248656400Y-111216901D03*
X248656400Y-101317407D03*
%TD*%
D38*
%TO.C,L18*%
X322165600Y-125933954D03*
X322165600Y-103933954D03*
D19*
X313165600Y-124933954D03*
X331165600Y-125933954D03*
%TD*%
%TO.C,L3*%
X216656400Y-160716901D03*
X216656400Y-150817407D03*
%TD*%
D36*
%TO.C,R9*%
X309422800Y-98741154D03*
X309422800Y-93941154D03*
%TD*%
D40*
%TO.C,R5*%
X341528400Y-96593254D03*
X341528400Y-94768254D03*
%TD*%
D19*
%TO.C,L17*%
X152656400Y-111216901D03*
X152656400Y-101317407D03*
%TD*%
%TO.C,L16*%
X184656400Y-111216901D03*
X184656400Y-101317407D03*
%TD*%
D20*
%TO.C,RV2*%
X310946800Y-88289354D03*
X313486800Y-88289354D03*
X316026800Y-88289354D03*
%TD*%
D19*
%TO.C,L11*%
X152656400Y-136216901D03*
X152656400Y-126317407D03*
%TD*%
D17*
%TO.C,C18*%
X322835300Y-79627954D03*
X321110300Y-79627954D03*
%TD*%
D27*
%TO.C,R13*%
X317728600Y-82830254D03*
X317728600Y-84655254D03*
%TD*%
D18*
%TO.C,REL11*%
X169406400Y-61767154D03*
X161906400Y-61767154D03*
X161906400Y-76967154D03*
X161906400Y-81967154D03*
X161906400Y-86967154D03*
X169406400Y-76967154D03*
X169406400Y-81967154D03*
X169406400Y-86967154D03*
%TD*%
D22*
%TO.C,C50*%
X334772000Y-77366254D03*
X334772000Y-75641254D03*
%TD*%
D19*
%TO.C,L13*%
X280656400Y-111216901D03*
X280656400Y-101317407D03*
%TD*%
%TO.C,L10*%
X184656400Y-136216901D03*
X184656400Y-126317407D03*
%TD*%
%TO.C,L8*%
X248656400Y-136216901D03*
X248656400Y-126317407D03*
%TD*%
D41*
%TO.C,R11*%
X312777500Y-91692954D03*
X314602500Y-91692954D03*
%TD*%
D42*
%TO.C,U3*%
X308365600Y-68909154D03*
X308365600Y-67639154D03*
X308365600Y-66369154D03*
X308365600Y-65099154D03*
X308365600Y-63829154D03*
X308365600Y-62559154D03*
X308365600Y-61289154D03*
X308365600Y-60019154D03*
X303215600Y-60019154D03*
X303215600Y-61289154D03*
X303215600Y-62559154D03*
X303215600Y-63829154D03*
X303215600Y-65099154D03*
X303215600Y-66369154D03*
X303215600Y-67639154D03*
X303215600Y-68909154D03*
%TD*%
D33*
%TO.C,R7*%
X319227200Y-93864954D03*
X319227200Y-98664954D03*
%TD*%
D19*
%TO.C,L12*%
X117656400Y-120631115D03*
X117656400Y-107903193D03*
%TD*%
M02*
