%TF.GenerationSoftware,KiCad,Pcbnew,7.0.10*%
%TF.CreationDate,2024-05-11T12:56:43+02:00*%
%TF.ProjectId,LPF_HF+6,4c50465f-4846-42b3-962e-6b696361645f,rev?*%
%TF.SameCoordinates,Original*%
%TF.FileFunction,Soldermask,Bot*%
%TF.FilePolarity,Negative*%
%FSLAX46Y46*%
G04 Gerber Fmt 4.6, Leading zero omitted, Abs format (unit mm)*
G04 Created by KiCad (PCBNEW 7.0.10) date 2024-05-11 12:56:43*
%MOMM*%
%LPD*%
G01*
G04 APERTURE LIST*
G04 Aperture macros list*
%AMRoundRect*
0 Rectangle with rounded corners*
0 $1 Rounding radius*
0 $2 $3 $4 $5 $6 $7 $8 $9 X,Y pos of 4 corners*
0 Add a 4 corners polygon primitive as box body*
4,1,4,$2,$3,$4,$5,$6,$7,$8,$9,$2,$3,0*
0 Add four circle primitives for the rounded corners*
1,1,$1+$1,$2,$3*
1,1,$1+$1,$4,$5*
1,1,$1+$1,$6,$7*
1,1,$1+$1,$8,$9*
0 Add four rect primitives between the rounded corners*
20,1,$1+$1,$2,$3,$4,$5,0*
20,1,$1+$1,$4,$5,$6,$7,0*
20,1,$1+$1,$6,$7,$8,$9,0*
20,1,$1+$1,$8,$9,$2,$3,0*%
G04 Aperture macros list end*
%ADD10C,4.344165*%
%ADD11C,2.600000*%
%ADD12C,3.000000*%
%ADD13C,1.440000*%
%ADD14RoundRect,0.250000X0.725000X-0.600000X0.725000X0.600000X-0.725000X0.600000X-0.725000X-0.600000X0*%
%ADD15O,1.950000X1.700000*%
%ADD16R,3.000000X3.000000*%
%ADD17C,5.000000*%
%ADD18RoundRect,0.279245X-0.460755X-6.695755X0.460755X-6.695755X0.460755X6.695755X-0.460755X6.695755X0*%
%ADD19RoundRect,0.286792X-0.473208X-6.688208X0.473208X-6.688208X0.473208X6.688208X-0.473208X6.688208X0*%
%ADD20RoundRect,0.849056X1.600944X1.400944X-1.600944X1.400944X-1.600944X-1.400944X1.600944X-1.400944X0*%
%ADD21RoundRect,0.301886X0.498114X1.948114X-0.498114X1.948114X-0.498114X-1.948114X0.498114X-1.948114X0*%
%ADD22RoundRect,0.290094X-0.478656X-1.959906X0.478656X-1.959906X0.478656X1.959906X-0.478656X1.959906X0*%
%ADD23RoundRect,0.250000X-1.000000X-0.650000X1.000000X-0.650000X1.000000X0.650000X-1.000000X0.650000X0*%
%ADD24RoundRect,0.943395X1.556605X2.556605X-1.556605X2.556605X-1.556605X-2.556605X1.556605X-2.556605X0*%
%ADD25RoundRect,0.286792X0.473208X3.213208X-0.473208X3.213208X-0.473208X-3.213208X0.473208X-3.213208X0*%
%ADD26RoundRect,0.250000X1.000000X0.650000X-1.000000X0.650000X-1.000000X-0.650000X1.000000X-0.650000X0*%
%ADD27RoundRect,0.112500X0.187500X0.112500X-0.187500X0.112500X-0.187500X-0.112500X0.187500X-0.112500X0*%
%ADD28RoundRect,0.237500X0.300000X0.237500X-0.300000X0.237500X-0.300000X-0.237500X0.300000X-0.237500X0*%
%ADD29RoundRect,0.237500X-0.300000X-0.237500X0.300000X-0.237500X0.300000X0.237500X-0.300000X0.237500X0*%
%ADD30RoundRect,1.056602X1.743398X2.493398X-1.743398X2.493398X-1.743398X-2.493398X1.743398X-2.493398X0*%
%ADD31RoundRect,0.292452X0.482548X3.145048X-0.482548X3.145048X-0.482548X-3.145048X0.482548X-3.145048X0*%
%ADD32RoundRect,0.283019X0.466981X3.166981X-0.466981X3.166981X-0.466981X-3.166981X0.466981X-3.166981X0*%
G04 APERTURE END LIST*
D10*
X335828482Y-61267154D02*
G75*
G03*
X331484318Y-61267154I-2172082J0D01*
G01*
X331484318Y-61267154D02*
G75*
G03*
X335828482Y-61267154I2172082J0D01*
G01*
X108828482Y-61267154D02*
G75*
G03*
X104484318Y-61267154I-2172082J0D01*
G01*
X104484318Y-61267154D02*
G75*
G03*
X108828482Y-61267154I2172082J0D01*
G01*
X108828482Y-206267154D02*
G75*
G03*
X104484318Y-206267154I-2172082J0D01*
G01*
X104484318Y-206267154D02*
G75*
G03*
X108828482Y-206267154I2172082J0D01*
G01*
X335828482Y-206267154D02*
G75*
G03*
X331484318Y-206267154I-2172082J0D01*
G01*
X331484318Y-206267154D02*
G75*
G03*
X335828482Y-206267154I2172082J0D01*
G01*
D11*
%TO.C,REL3*%
X223906400Y-204267154D03*
X231406400Y-204267154D03*
X231406400Y-189067154D03*
X231406400Y-184067154D03*
X231406400Y-179067154D03*
X223906400Y-189067154D03*
X223906400Y-184067154D03*
X223906400Y-179067154D03*
%TD*%
D12*
%TO.C,L7*%
X280656400Y-136216901D03*
X280656400Y-126317407D03*
%TD*%
D13*
%TO.C,RV1*%
X323926200Y-88314754D03*
X326466200Y-88314754D03*
X329006200Y-88314754D03*
%TD*%
D12*
%TO.C,L9*%
X216656400Y-136216901D03*
X216656400Y-126317407D03*
%TD*%
%TO.C,L5*%
X152656400Y-160716901D03*
X152656400Y-150817407D03*
%TD*%
D11*
%TO.C,REL9*%
X231406400Y-61767154D03*
X223906400Y-61767154D03*
X223906400Y-76967154D03*
X223906400Y-81967154D03*
X223906400Y-86967154D03*
X231406400Y-76967154D03*
X231406400Y-81967154D03*
X231406400Y-86967154D03*
%TD*%
D12*
%TO.C,L4*%
X184656400Y-160716901D03*
X184656400Y-150817407D03*
%TD*%
D14*
%TO.C,J1*%
X339496400Y-81340554D03*
D15*
X339496400Y-78840554D03*
X339496400Y-76340554D03*
X339496400Y-73840554D03*
X339496400Y-71340554D03*
X339496400Y-68840554D03*
X339496400Y-66340554D03*
%TD*%
D14*
%TO.C,J4*%
X314863200Y-77374354D03*
D15*
X314863200Y-74874354D03*
X314863200Y-72374354D03*
X314863200Y-69874354D03*
X314863200Y-67374354D03*
X314863200Y-64874354D03*
X314863200Y-62374354D03*
%TD*%
D11*
%TO.C,REL10*%
X200406400Y-61767154D03*
X192906400Y-61767154D03*
X192906400Y-76967154D03*
X192906400Y-81967154D03*
X192906400Y-86967154D03*
X200406400Y-76967154D03*
X200406400Y-81967154D03*
X200406400Y-86967154D03*
%TD*%
%TO.C,REL8*%
X262406400Y-61767154D03*
X254906400Y-61767154D03*
X254906400Y-76967154D03*
X254906400Y-81967154D03*
X254906400Y-86967154D03*
X262406400Y-76967154D03*
X262406400Y-81967154D03*
X262406400Y-86967154D03*
%TD*%
D12*
%TO.C,L2*%
X248656400Y-160716901D03*
X248656400Y-150817407D03*
%TD*%
D11*
%TO.C,REL1*%
X285906400Y-204267154D03*
X293406400Y-204267154D03*
X293406400Y-189067154D03*
X293406400Y-184067154D03*
X293406400Y-179067154D03*
X285906400Y-189067154D03*
X285906400Y-184067154D03*
X285906400Y-179067154D03*
%TD*%
%TO.C,REL7*%
X293056000Y-61862154D03*
X285556000Y-61862154D03*
X285556000Y-77062154D03*
X285556000Y-82062154D03*
X285556000Y-87062154D03*
X293056000Y-77062154D03*
X293056000Y-82062154D03*
X293056000Y-87062154D03*
%TD*%
%TO.C,REL2*%
X254906400Y-204267154D03*
X262406400Y-204267154D03*
X262406400Y-189067154D03*
X262406400Y-184067154D03*
X262406400Y-179067154D03*
X254906400Y-189067154D03*
X254906400Y-184067154D03*
X254906400Y-179067154D03*
%TD*%
D12*
%TO.C,L15*%
X216656400Y-111216901D03*
X216656400Y-101317407D03*
%TD*%
D11*
%TO.C,REL6*%
X129057400Y-204367354D03*
X136557400Y-204367354D03*
X136557400Y-189167354D03*
X136557400Y-184167354D03*
X136557400Y-179167354D03*
X129057400Y-189167354D03*
X129057400Y-184167354D03*
X129057400Y-179167354D03*
%TD*%
%TO.C,REL4*%
X192906400Y-204267154D03*
X200406400Y-204267154D03*
X200406400Y-189067154D03*
X200406400Y-184067154D03*
X200406400Y-179067154D03*
X192906400Y-189067154D03*
X192906400Y-184067154D03*
X192906400Y-179067154D03*
%TD*%
%TO.C,REL12*%
X136211000Y-61767154D03*
X128711000Y-61767154D03*
X128711000Y-76967154D03*
X128711000Y-81967154D03*
X128711000Y-86967154D03*
X136211000Y-76967154D03*
X136211000Y-81967154D03*
X136211000Y-86967154D03*
%TD*%
D16*
%TO.C,J2*%
X338099400Y-111301754D03*
D12*
X338099400Y-106221754D03*
%TD*%
%TO.C,L6*%
X117656400Y-154631115D03*
X117656400Y-141903193D03*
%TD*%
D11*
%TO.C,REL5*%
X161906400Y-204267154D03*
X169406400Y-204267154D03*
X169406400Y-189067154D03*
X169406400Y-184067154D03*
X169406400Y-179067154D03*
X161906400Y-189067154D03*
X161906400Y-184067154D03*
X161906400Y-179067154D03*
%TD*%
D17*
%TO.C,L19*%
X304997425Y-141826779D03*
D12*
X312068493Y-136169925D03*
X298633464Y-148190740D03*
%TD*%
%TO.C,L1*%
X280656400Y-160716901D03*
X280656400Y-150817407D03*
%TD*%
%TO.C,L14*%
X248656400Y-111216901D03*
X248656400Y-101317407D03*
%TD*%
D17*
%TO.C,L18*%
X322165600Y-125933954D03*
X322165600Y-103933954D03*
D12*
X313165600Y-124933954D03*
X331165600Y-125933954D03*
%TD*%
%TO.C,L3*%
X216656400Y-160716901D03*
X216656400Y-150817407D03*
%TD*%
%TO.C,L17*%
X152656400Y-111216901D03*
X152656400Y-101317407D03*
%TD*%
%TO.C,L16*%
X184656400Y-111216901D03*
X184656400Y-101317407D03*
%TD*%
D13*
%TO.C,RV2*%
X310946800Y-88289354D03*
X313486800Y-88289354D03*
X316026800Y-88289354D03*
%TD*%
D12*
%TO.C,L11*%
X152656400Y-136216901D03*
X152656400Y-126317407D03*
%TD*%
D11*
%TO.C,REL11*%
X169406400Y-61767154D03*
X161906400Y-61767154D03*
X161906400Y-76967154D03*
X161906400Y-81967154D03*
X161906400Y-86967154D03*
X169406400Y-76967154D03*
X169406400Y-81967154D03*
X169406400Y-86967154D03*
%TD*%
D12*
%TO.C,L13*%
X280656400Y-111216901D03*
X280656400Y-101317407D03*
%TD*%
%TO.C,L10*%
X184656400Y-136216901D03*
X184656400Y-126317407D03*
%TD*%
%TO.C,L8*%
X248656400Y-136216901D03*
X248656400Y-126317407D03*
%TD*%
%TO.C,L12*%
X117656400Y-120631115D03*
X117656400Y-107903193D03*
%TD*%
D18*
%TO.C,C32*%
X119996400Y-130492154D03*
D19*
X123296400Y-130492154D03*
%TD*%
D20*
%TO.C,C25*%
X152706400Y-168617154D03*
D21*
X147753900Y-168617154D03*
D22*
X157725150Y-168617154D03*
%TD*%
D20*
%TO.C,C43*%
X152706400Y-95617154D03*
D21*
X147753900Y-95617154D03*
D22*
X157725150Y-95617154D03*
%TD*%
D20*
%TO.C,C22*%
X248606400Y-168617154D03*
D21*
X243653900Y-168617154D03*
D22*
X253625150Y-168617154D03*
%TD*%
D23*
%TO.C,D15*%
X130610800Y-58545954D03*
X134610800Y-58545954D03*
%TD*%
D24*
%TO.C,C38*%
X117756400Y-98567154D03*
D25*
X122445148Y-98567154D03*
X112696400Y-98617154D03*
%TD*%
D20*
%TO.C,C21*%
X280606400Y-168617154D03*
D21*
X275653900Y-168617154D03*
D22*
X285625150Y-168617154D03*
%TD*%
D26*
%TO.C,D6*%
X134656400Y-208267154D03*
X130656400Y-208267154D03*
%TD*%
D20*
%TO.C,C31*%
X152606400Y-142517154D03*
D21*
X147653900Y-142517154D03*
D22*
X157625150Y-142517154D03*
%TD*%
D27*
%TO.C,D8*%
X336331000Y-73790754D03*
X334231000Y-73790754D03*
%TD*%
D28*
%TO.C,C6*%
X133518900Y-204267154D03*
X131793900Y-204267154D03*
%TD*%
D23*
%TO.C,D12*%
X225610800Y-58545954D03*
X229610800Y-58545954D03*
%TD*%
D20*
%TO.C,C28*%
X248606400Y-142617154D03*
D21*
X243653900Y-142617154D03*
D22*
X253625150Y-142617154D03*
%TD*%
D20*
%TO.C,C27*%
X280606400Y-142617154D03*
D21*
X275653900Y-142617154D03*
D22*
X285625150Y-142617154D03*
%TD*%
D20*
%TO.C,C30*%
X184506400Y-142617154D03*
D21*
X179553900Y-142617154D03*
D22*
X189525150Y-142617154D03*
%TD*%
D29*
%TO.C,C10*%
X257793900Y-61267154D03*
X259518900Y-61267154D03*
%TD*%
D20*
%TO.C,C29*%
X216606400Y-142617154D03*
D21*
X211653900Y-142617154D03*
D22*
X221625150Y-142617154D03*
%TD*%
D20*
%TO.C,C41*%
X216706400Y-95617154D03*
D21*
X211753900Y-95617154D03*
D22*
X221725150Y-95617154D03*
%TD*%
D26*
%TO.C,D2*%
X260656400Y-208267154D03*
X256656400Y-208267154D03*
%TD*%
D20*
%TO.C,C42*%
X184706400Y-95617154D03*
D21*
X179753900Y-95617154D03*
D22*
X189725150Y-95617154D03*
%TD*%
D20*
%TO.C,C35*%
X216606400Y-116617154D03*
D21*
X211653900Y-116617154D03*
D22*
X221625150Y-116617154D03*
%TD*%
D28*
%TO.C,C3*%
X228497300Y-204267154D03*
X226772300Y-204267154D03*
%TD*%
D27*
%TO.C,D9*%
X336381800Y-71326954D03*
X334281800Y-71326954D03*
%TD*%
D20*
%TO.C,C24*%
X184706400Y-168617154D03*
D21*
X179753900Y-168617154D03*
D22*
X189725150Y-168617154D03*
%TD*%
D30*
%TO.C,C26*%
X117356400Y-164717154D03*
D31*
X122681400Y-164629654D03*
D32*
X111986400Y-164717154D03*
%TD*%
D23*
%TO.C,D13*%
X194610800Y-58545954D03*
X198610800Y-58545954D03*
%TD*%
%TO.C,D14*%
X163610800Y-58545954D03*
X167610800Y-58545954D03*
%TD*%
D26*
%TO.C,D1*%
X291661600Y-208267154D03*
X287661600Y-208267154D03*
%TD*%
D29*
%TO.C,C13*%
X164793900Y-61267154D03*
X166518900Y-61267154D03*
%TD*%
D26*
%TO.C,D5*%
X167656400Y-208267154D03*
X163656400Y-208267154D03*
%TD*%
D28*
%TO.C,C1*%
X290473300Y-204267154D03*
X288748300Y-204267154D03*
%TD*%
%TO.C,C4*%
X197518900Y-204267154D03*
X195793900Y-204267154D03*
%TD*%
D26*
%TO.C,D3*%
X229656400Y-208267154D03*
X225656400Y-208267154D03*
%TD*%
D20*
%TO.C,C33*%
X280706400Y-116617154D03*
D21*
X275753900Y-116617154D03*
D22*
X285725150Y-116617154D03*
%TD*%
D28*
%TO.C,C2*%
X259637700Y-204267154D03*
X257912700Y-204267154D03*
%TD*%
D26*
%TO.C,D4*%
X198656400Y-208267154D03*
X194656400Y-208267154D03*
%TD*%
D20*
%TO.C,C39*%
X280706400Y-95617154D03*
D21*
X275753900Y-95617154D03*
D22*
X285725150Y-95617154D03*
%TD*%
D20*
%TO.C,C40*%
X248706400Y-95617154D03*
D21*
X243753900Y-95617154D03*
D22*
X253725150Y-95617154D03*
%TD*%
D20*
%TO.C,C36*%
X184706400Y-116617154D03*
D21*
X179753900Y-116617154D03*
D22*
X189725150Y-116617154D03*
%TD*%
D23*
%TO.C,D11*%
X256610800Y-58545954D03*
X260610800Y-58545954D03*
%TD*%
D20*
%TO.C,C34*%
X248706400Y-116617154D03*
D21*
X243753900Y-116617154D03*
D22*
X253725150Y-116617154D03*
%TD*%
D23*
%TO.C,D10*%
X287610800Y-58545954D03*
X291610800Y-58545954D03*
%TD*%
D29*
%TO.C,C11*%
X226793900Y-61267154D03*
X228518900Y-61267154D03*
%TD*%
D20*
%TO.C,C37*%
X152606400Y-116617154D03*
D21*
X147653900Y-116617154D03*
D22*
X157625150Y-116617154D03*
%TD*%
D29*
%TO.C,C9*%
X288793900Y-61267154D03*
X290518900Y-61267154D03*
%TD*%
%TO.C,C14*%
X131793900Y-61267154D03*
X133518900Y-61267154D03*
%TD*%
D20*
%TO.C,C23*%
X216606400Y-168617154D03*
D21*
X211653900Y-168617154D03*
D22*
X221625150Y-168617154D03*
%TD*%
D27*
%TO.C,D7*%
X336407200Y-68863154D03*
X334307200Y-68863154D03*
%TD*%
D28*
%TO.C,C5*%
X166518900Y-204267154D03*
X164793900Y-204267154D03*
%TD*%
D29*
%TO.C,C12*%
X195793900Y-61267154D03*
X197518900Y-61267154D03*
%TD*%
M02*
